<svg width="94" height="32" viewBox="0 0 94 32" fill="none" xmlns="http://www.w3.org/2000/svg">
<path d="M13.8891 29.8889L2.14824 18.1482C0.96719 16.9672 1.01568 15.0586 2.17577 13.8985L8.0688 8.00557C9.40227 6.67212 10.8551 5.83877 12.4575 5.69802C14.067 5.55667 15.449 6.10222 16.5884 7.24164C17.4429 8.09621 18.0229 9.21993 18.1649 10.4474C19.5114 10.4796 20.6847 11.021 21.6748 12.0111C22.8154 13.1517 23.4672 14.7718 23.2407 16.478C23.0306 18.0609 22.2814 19.532 21.0018 20.8116L18.4037 23.4097C17.2436 24.5696 15.335 24.6182 14.154 23.4372L7.7003 16.9836C7.21922 16.5024 7.21925 15.7222 7.7003 15.241C8.18147 14.7599 8.96168 14.7599 9.4429 15.241L15.8966 21.6946C16.0793 21.8773 16.4271 21.9009 16.6611 21.6671L19.2592 19.069C20.1975 18.1307 20.6662 17.1441 20.7976 16.1538C20.9127 15.2869 20.5893 14.4108 19.9322 13.7537C19.2799 13.1015 18.6087 12.8539 17.7821 12.9211C17.6001 12.9448 17.4276 12.9877 17.1769 13.0529C16.7378 13.1672 16.2716 13.0307 15.9631 12.698C15.6547 12.3652 15.5538 11.8899 15.701 11.4607C15.7022 11.4573 15.7028 11.454 15.7038 11.4511C15.7055 11.4288 15.7083 11.4065 15.7112 11.3843C15.8263 10.5174 15.5029 9.6413 14.8458 8.98422C14.1876 8.326 13.5098 8.07933 12.6728 8.15285C11.8288 8.22703 10.8858 8.67374 9.8114 9.74814L3.91837 15.6411C3.68439 15.8751 3.70811 16.2229 3.89084 16.4056L15.6317 28.1464C15.8144 28.3291 16.1623 28.3528 16.3963 28.1188L28.1192 16.396C28.3532 16.1621 28.3295 15.8142 28.1468 15.6315L15.1289 2.61386C14.6477 2.13266 14.6477 1.35248 15.1289 0.871285C15.6101 0.390086 16.3903 0.390086 16.8715 0.871285L29.8894 13.8889C31.0704 15.07 31.0219 16.9785 29.8618 18.1386L18.1389 29.8614C16.9788 31.0215 15.0702 31.07 13.8891 29.8889Z" fill="url(#paint0_linear_863_1810)"/>
<path d="M84.8449 27.5516C84.4208 27.5516 84.026 27.5224 83.6603 27.4639C83.3093 27.42 82.9584 27.3542 82.6074 27.2665V24.6559C82.8999 24.7291 83.2143 24.7949 83.5507 24.8534C83.887 24.9265 84.2307 24.9631 84.5817 24.9631C85.2544 24.9631 85.7736 24.8387 86.1392 24.5901C86.5195 24.3561 86.7827 23.9686 86.929 23.4275L90.0002 11.8008H93.0494L89.6272 23.4275C89.3055 24.5243 88.9106 25.3726 88.4426 25.9722C87.9893 26.5718 87.4628 26.9813 86.8632 27.2006C86.2635 27.4346 85.5908 27.5516 84.8449 27.5516ZM85.0863 23.4275L81.6641 11.8008H84.7791L87.96 23.4275H85.0863Z" fill="#0E1830"/>
<path d="M84.8449 27.5516C84.4208 27.5516 84.026 27.5224 83.6603 27.4639C83.3093 27.42 82.9584 27.3542 82.6074 27.2665V24.6559C82.8999 24.7291 83.2143 24.7949 83.5507 24.8534C83.887 24.9265 84.2307 24.9631 84.5817 24.9631C85.2544 24.9631 85.7736 24.8387 86.1392 24.5901C86.5195 24.3561 86.7827 23.9686 86.929 23.4275L90.0002 11.8008H93.0494L89.6272 23.4275C89.3055 24.5243 88.9106 25.3726 88.4426 25.9722C87.9893 26.5718 87.4628 26.9813 86.8632 27.2006C86.2635 27.4346 85.5908 27.5516 84.8449 27.5516ZM85.0863 23.4275L81.6641 11.8008H84.7791L87.96 23.4275H85.0863Z" fill="url(#paint1_linear_863_1810)" fill-opacity="0.2"/>
<path d="M73.432 23.4275L70.0098 11.8008H73.1248L76.3057 23.4275H73.432ZM75.2966 23.4275L78.3459 11.8008H81.3951L77.9729 23.4275H75.2966Z" fill="#0E1830"/>
<path d="M73.432 23.4275L70.0098 11.8008H73.1248L76.3057 23.4275H73.432ZM75.2966 23.4275L78.3459 11.8008H81.3951L77.9729 23.4275H75.2966Z" fill="url(#paint2_linear_863_1810)" fill-opacity="0.2"/>
<path d="M63.7458 23.7127C62.6781 23.7127 61.7275 23.4567 60.8939 22.9449C60.0603 22.433 59.4095 21.7237 58.9415 20.817C58.4882 19.8956 58.2615 18.828 58.2615 17.6141C58.2615 16.371 58.4955 15.2961 58.9635 14.3894C59.4315 13.468 60.0823 12.7587 60.9159 12.2615C61.7495 11.7642 62.7001 11.5156 63.7677 11.5156C64.8353 11.5156 65.7786 11.7642 66.5976 12.2615C67.4166 12.7587 68.0527 13.4607 68.5061 14.3675C68.9741 15.2742 69.2081 16.3564 69.2081 17.6141C69.2081 17.7604 69.2008 17.8993 69.1862 18.031C69.1862 18.1626 69.1862 18.3088 69.1862 18.4697H60.0823V16.4295H67.0363L66.2247 17.6141C66.2247 16.3125 66.0053 15.3839 65.5665 14.8281C65.1424 14.2578 64.5428 13.9726 63.7677 13.9726C63.0218 13.9726 62.4149 14.2578 61.9469 14.8281C61.4935 15.3839 61.2669 16.3125 61.2669 17.6141C61.2669 18.828 61.5009 19.7274 61.9688 20.3124C62.4368 20.8828 63.073 21.168 63.8774 21.168C64.4185 21.168 64.8865 21.0437 65.2814 20.795C65.6762 20.5464 65.9687 20.1589 66.1588 19.6324L68.901 20.4221C68.5939 21.4166 67.9942 22.2136 67.1021 22.8132C66.2247 23.4129 65.1059 23.7127 63.7458 23.7127Z" fill="#0E1830"/>
<path d="M63.7458 23.7127C62.6781 23.7127 61.7275 23.4567 60.8939 22.9449C60.0603 22.433 59.4095 21.7237 58.9415 20.817C58.4882 19.8956 58.2615 18.828 58.2615 17.6141C58.2615 16.371 58.4955 15.2961 58.9635 14.3894C59.4315 13.468 60.0823 12.7587 60.9159 12.2615C61.7495 11.7642 62.7001 11.5156 63.7677 11.5156C64.8353 11.5156 65.7786 11.7642 66.5976 12.2615C67.4166 12.7587 68.0527 13.4607 68.5061 14.3675C68.9741 15.2742 69.2081 16.3564 69.2081 17.6141C69.2081 17.7604 69.2008 17.8993 69.1862 18.031C69.1862 18.1626 69.1862 18.3088 69.1862 18.4697H60.0823V16.4295H67.0363L66.2247 17.6141C66.2247 16.3125 66.0053 15.3839 65.5665 14.8281C65.1424 14.2578 64.5428 13.9726 63.7677 13.9726C63.0218 13.9726 62.4149 14.2578 61.9469 14.8281C61.4935 15.3839 61.2669 16.3125 61.2669 17.6141C61.2669 18.828 61.5009 19.7274 61.9688 20.3124C62.4368 20.8828 63.073 21.168 63.8774 21.168C64.4185 21.168 64.8865 21.0437 65.2814 20.795C65.6762 20.5464 65.9687 20.1589 66.1588 19.6324L68.901 20.4221C68.5939 21.4166 67.9942 22.2136 67.1021 22.8132C66.2247 23.4129 65.1059 23.7127 63.7458 23.7127Z" fill="url(#paint3_linear_863_1810)" fill-opacity="0.2"/>
<path d="M50.7339 23.4275V11.8008H53.6515V23.4275H50.7339ZM53.125 17.8993C53.125 16.6124 53.2713 15.4936 53.5638 14.5429C53.8563 13.5777 54.3096 12.8319 54.9239 12.3054C55.5381 11.7789 56.3205 11.5156 57.2712 11.5156V14.8281H55.9988C55.2676 14.8281 54.6899 15.0183 54.2658 15.3985C53.8563 15.7641 53.6515 16.4076 53.6515 17.329L53.125 17.8993Z" fill="#0E1830"/>
<path d="M50.7339 23.4275V11.8008H53.6515V23.4275H50.7339ZM53.125 17.8993C53.125 16.6124 53.2713 15.4936 53.5638 14.5429C53.8563 13.5777 54.3096 12.8319 54.9239 12.3054C55.5381 11.7789 56.3205 11.5156 57.2712 11.5156V14.8281H55.9988C55.2676 14.8281 54.6899 15.0183 54.2658 15.3985C53.8563 15.7641 53.6515 16.4076 53.6515 17.329L53.125 17.8993Z" fill="url(#paint4_linear_863_1810)" fill-opacity="0.2"/>
<path d="M38.4094 23.4271V20.6411H43.3233C44.1716 20.6411 44.7785 20.4803 45.1441 20.1585C45.5097 19.8221 45.6925 19.3688 45.6925 18.7984C45.6925 18.2134 45.5097 17.7601 45.1441 17.4383C44.7785 17.1019 44.1716 16.9338 43.3233 16.9338H38.4094V15.091H43.784C45.4074 15.091 46.6505 15.4713 47.5133 16.2318C48.3762 16.9923 48.8076 17.9648 48.8076 19.1494C48.8076 20.4071 48.3543 21.4382 47.4475 22.2425C46.5408 23.0323 45.2538 23.4271 43.5866 23.4271H38.4094ZM37.0493 23.4271V8.29053H40.0986V23.4271H37.0493ZM38.4094 15.815V14.4549H42.9285C43.7036 14.4549 44.2666 14.3013 44.6176 13.9942C44.9832 13.6724 45.1661 13.2556 45.1661 12.7438C45.1661 12.2319 44.9832 11.8297 44.6176 11.5372C44.2666 11.2301 43.7036 11.0765 42.9285 11.0765H38.4094V8.29053H43.2136C44.2813 8.29053 45.188 8.45871 45.9339 8.79508C46.6943 9.11683 47.272 9.57751 47.6669 10.1771C48.0618 10.7621 48.2592 11.4422 48.2592 12.2173C48.2592 13.2703 47.8204 14.1331 46.943 14.8059C46.0801 15.4786 44.8151 15.815 43.1478 15.815H38.4094Z" fill="#0E1830"/>
<path d="M38.4094 23.4271V20.6411H43.3233C44.1716 20.6411 44.7785 20.4803 45.1441 20.1585C45.5097 19.8221 45.6925 19.3688 45.6925 18.7984C45.6925 18.2134 45.5097 17.7601 45.1441 17.4383C44.7785 17.1019 44.1716 16.9338 43.3233 16.9338H38.4094V15.091H43.784C45.4074 15.091 46.6505 15.4713 47.5133 16.2318C48.3762 16.9923 48.8076 17.9648 48.8076 19.1494C48.8076 20.4071 48.3543 21.4382 47.4475 22.2425C46.5408 23.0323 45.2538 23.4271 43.5866 23.4271H38.4094ZM37.0493 23.4271V8.29053H40.0986V23.4271H37.0493ZM38.4094 15.815V14.4549H42.9285C43.7036 14.4549 44.2666 14.3013 44.6176 13.9942C44.9832 13.6724 45.1661 13.2556 45.1661 12.7438C45.1661 12.2319 44.9832 11.8297 44.6176 11.5372C44.2666 11.2301 43.7036 11.0765 42.9285 11.0765H38.4094V8.29053H43.2136C44.2813 8.29053 45.188 8.45871 45.9339 8.79508C46.6943 9.11683 47.272 9.57751 47.6669 10.1771C48.0618 10.7621 48.2592 11.4422 48.2592 12.2173C48.2592 13.2703 47.8204 14.1331 46.943 14.8059C46.0801 15.4786 44.8151 15.815 43.1478 15.815H38.4094Z" fill="url(#paint5_linear_863_1810)" fill-opacity="0.2"/>
<defs>
<linearGradient id="paint0_linear_863_1810" x1="25.0493" y1="3.36328" x2="1.71539" y2="10.1168" gradientUnits="userSpaceOnUse">
<stop stop-color="#2563EB"/>
<stop offset="1" stop-color="#7E69C9"/>
</linearGradient>
<linearGradient id="paint1_linear_863_1810" x1="87.3567" y1="27.5516" x2="87.3567" y2="11.8008" gradientUnits="userSpaceOnUse">
<stop stop-color="#02001F"/>
<stop offset="1" stop-color="#5D5E6B"/>
</linearGradient>
<linearGradient id="paint2_linear_863_1810" x1="75.7025" y1="23.4275" x2="75.7025" y2="11.8008" gradientUnits="userSpaceOnUse">
<stop stop-color="#02001F"/>
<stop offset="1" stop-color="#5D5E6B"/>
</linearGradient>
<linearGradient id="paint3_linear_863_1810" x1="63.7348" y1="23.7127" x2="63.7348" y2="11.5156" gradientUnits="userSpaceOnUse">
<stop stop-color="#02001F"/>
<stop offset="1" stop-color="#5D5E6B"/>
</linearGradient>
<linearGradient id="paint4_linear_863_1810" x1="54.0025" y1="23.4275" x2="54.0025" y2="11.5156" gradientUnits="userSpaceOnUse">
<stop stop-color="#02001F"/>
<stop offset="1" stop-color="#5D5E6B"/>
</linearGradient>
<linearGradient id="paint5_linear_863_1810" x1="42.9285" y1="23.4271" x2="42.9285" y2="8.29053" gradientUnits="userSpaceOnUse">
<stop stop-color="#02001F"/>
<stop offset="1" stop-color="#5D5E6B"/>
</linearGradient>
</defs>
</svg>
