<svg width="85" height="32" viewBox="0 0 85 32" fill="none" xmlns="http://www.w3.org/2000/svg">
<path d="M13.8891 29.8889L2.14824 18.1482C0.96719 16.9672 1.01568 15.0586 2.17577 13.8985L8.0688 8.00557C9.40227 6.67212 10.8551 5.83877 12.4575 5.69802C14.067 5.55667 15.449 6.10222 16.5884 7.24164C17.4429 8.09621 18.0229 9.21993 18.1649 10.4474C19.5114 10.4796 20.6847 11.021 21.6748 12.0111C22.8154 13.1517 23.4672 14.7718 23.2407 16.478C23.0306 18.0609 22.2814 19.532 21.0018 20.8116L18.4037 23.4097C17.2436 24.5696 15.335 24.6182 14.154 23.4372L7.7003 16.9836C7.21922 16.5024 7.21925 15.7222 7.7003 15.241C8.18147 14.7599 8.96168 14.7599 9.4429 15.241L15.8966 21.6946C16.0793 21.8773 16.4271 21.9009 16.6611 21.6671L19.2592 19.069C20.1975 18.1307 20.6662 17.1441 20.7976 16.1538C20.9127 15.2869 20.5893 14.4108 19.9322 13.7537C19.2799 13.1015 18.6087 12.8539 17.7821 12.9211C17.6001 12.9448 17.4276 12.9877 17.1769 13.0529C16.7378 13.1672 16.2716 13.0307 15.9631 12.698C15.6547 12.3652 15.5538 11.8899 15.701 11.4607C15.7022 11.4573 15.7028 11.454 15.7038 11.4511C15.7055 11.4288 15.7083 11.4065 15.7112 11.3843C15.8263 10.5174 15.5029 9.6413 14.8458 8.98422C14.1876 8.326 13.5098 8.07933 12.6728 8.15285C11.8288 8.22703 10.8858 8.67374 9.8114 9.74814L3.91837 15.6411C3.68439 15.8751 3.70811 16.2229 3.89084 16.4056L15.6317 28.1464C15.8144 28.3291 16.1623 28.3528 16.3963 28.1188L28.1192 16.396C28.3532 16.1621 28.3295 15.8142 28.1468 15.6315L15.1289 2.61386C14.6477 2.13266 14.6477 1.35248 15.1289 0.871285C15.6101 0.390086 16.3903 0.390086 16.8715 0.871285L29.8894 13.8889C31.0704 15.07 31.0219 16.9785 29.8618 18.1386L18.1389 29.8614C16.9788 31.0215 15.0702 31.07 13.8891 29.8889Z" fill="url(#paint0_linear_863_1810)"/>
<path d="M69.4106 19.7124H69.5171L71.561 12.6226H77.1089L79.1616 19.8892H79.2681L81.3306 12.6226H84.2339L80.3657 23.6597C80.0884 24.4621 79.6607 25.0997 79.0825 25.5718C78.5102 26.0497 77.7135 26.2885 76.6929 26.2886C76.3449 26.2886 76.0171 26.2625 75.7104 26.2095C75.4095 26.1564 75.1581 26.0909 74.9575 26.0142L75.5864 23.9702L75.6743 23.9878C76.1346 24.1176 76.5304 24.1465 76.8608 24.0757C77.197 24.0048 77.4447 23.7455 77.604 23.2974L77.772 22.8013L74.3296 12.9048L70.9683 22.5181H67.8706L64.4272 12.6226H67.3306L69.4106 19.7124ZM59.3765 12.4995C60.2498 12.4995 61.0376 12.6854 61.7397 13.0571C62.4478 13.4289 63.0083 13.9865 63.4214 14.73C63.8403 15.4734 64.0503 16.4058 64.0503 17.5269V18.27H57.3052C57.3347 19.0194 57.5533 19.6069 57.9604 20.0317C58.3675 20.4564 58.8985 20.6684 59.5532 20.6685C60.0076 20.6685 60.3976 20.5712 60.7222 20.3765C61.0525 20.1817 61.2886 19.8985 61.4302 19.5269L63.9614 19.6948C63.7667 20.6034 63.2802 21.3355 62.5015 21.8901C61.7285 22.4389 60.7307 22.7134 59.5093 22.7134C58.4944 22.7134 57.6208 22.5063 56.8892 22.0933C56.1577 21.6803 55.594 21.0935 55.1987 20.3325C54.8034 19.5654 54.606 18.6591 54.606 17.6147C54.606 16.6 54.8005 15.7089 55.1899 14.9419C55.5853 14.1749 56.1401 13.5757 56.854 13.145C57.5679 12.7143 58.4089 12.4995 59.3765 12.4995ZM52.7202 12.4907C52.8559 12.4907 53.0043 12.4994 53.1636 12.5171C53.3227 12.5348 53.4617 12.5589 53.5796 12.5884V15.0132C53.4498 14.9719 53.2696 14.9391 53.0396 14.9155C52.8153 14.886 52.6083 14.8716 52.4194 14.8716C51.8178 14.8716 51.3196 15.0635 50.9243 15.4468C50.529 15.8244 50.3306 16.3175 50.3306 16.9253V22.519H47.5874V12.6235H50.2427V14.3579H50.3481C50.5252 13.7444 50.8267 13.281 51.2515 12.9683C51.6761 12.6498 52.1658 12.4908 52.7202 12.4907ZM40.9312 9.33057C42.3825 9.33057 43.4739 9.64952 44.2056 10.2866C44.9372 10.9179 45.3031 11.7262 45.3032 12.7114C45.3032 13.4844 45.0759 14.1133 44.6216 14.5972C44.1732 15.0749 43.6067 15.3911 42.9224 15.5444V15.6772C43.4239 15.7008 43.893 15.8425 44.3296 16.1021C44.772 16.3616 45.1295 16.7268 45.4009 17.1987C45.6782 17.6648 45.8168 18.2227 45.8169 18.8716C45.8169 19.5678 45.6455 20.1939 45.3032 20.7485C44.961 21.2972 44.4533 21.7307 43.7808 22.0493C43.1082 22.3619 42.2766 22.518 41.2856 22.5181H35.6558V9.33057H40.9312ZM38.4351 20.2437H40.7095C41.4884 20.2437 42.0556 20.0934 42.4097 19.7925C42.7695 19.4916 42.9487 19.0927 42.9487 18.5972C42.9486 18.0545 42.7541 17.6093 42.3647 17.2612C41.9753 16.9073 41.4475 16.73 40.7808 16.73H38.4351V20.2437ZM59.4028 14.5435C58.7895 14.5435 58.3027 14.7354 57.9429 15.1187C57.5888 15.4963 57.3818 15.9836 57.3228 16.5796H61.4214C61.3565 15.9542 61.1561 15.4581 60.8198 15.0923C60.4835 14.7265 60.0106 14.5435 59.4028 14.5435ZM38.4351 14.854H40.5063C41.0728 14.854 41.5447 14.7028 41.9224 14.4019C42.2998 14.101 42.4887 13.6914 42.4888 13.1724C42.4888 12.7005 42.3209 12.3198 41.9849 12.0308C41.6485 11.7357 41.1727 11.5874 40.5591 11.5874H38.4351V14.854Z" fill="#02001F"/>
<defs>
<linearGradient id="paint0_linear_863_1810" x1="15.9966" y1="-6.84597" x2="-7.92252" y2="15.1308" gradientUnits="userSpaceOnUse">
<stop stop-color="#2563EB"/>
<stop offset="1" stop-color="#FF6B35"/>
</linearGradient>
</defs>
</svg>
