<svg width="122" height="28" viewBox="0 0 122 28" fill="none" xmlns="http://www.w3.org/2000/svg">
<path d="M54.1855 0C56.1325 0 57.8073 0.431851 58.3135 0.62793V5.01953C57.8073 4.86267 56.7554 4.54883 55.3926 4.54883C53.4459 4.54896 52.5117 5.45139 52.5117 7.17676V8.62793H58.625V13.2549H52.5117V28H46.5928V13.2549H43.75V8.62793H46.5928V6.74512C46.5928 2.27464 49.8244 0.000108628 54.1855 0ZM69.5625 7.875C75.6597 7.875 79.6248 11.6236 79.625 17.9766C79.625 24.2903 75.6599 28 69.5625 28C63.4651 28 59.5 24.2903 59.5 17.9766C59.5002 11.6236 63.4653 7.875 69.5625 7.875ZM88.375 28H83.125V0.875H88.375V28ZM98 28H91.875V8.55859H98V28ZM111.125 7.875C117.487 7.875 121.625 11.6236 121.625 17.9766C121.625 24.2903 117.487 28 111.125 28C104.763 28 100.625 24.2903 100.625 17.9766C100.625 11.6236 104.763 7.875 111.125 7.875ZM69.5625 12.4521C66.7945 12.4521 65.1857 14.5043 65.1855 17.9766C65.1855 21.4097 66.7944 23.4229 69.5625 23.4229C72.3306 23.4229 73.9395 21.4097 73.9395 17.9766C73.9393 14.5043 72.3305 12.4521 69.5625 12.4521ZM111.125 12.4521C108.237 12.4521 106.558 14.5043 106.558 17.9766C106.558 21.4097 108.237 23.4229 111.125 23.4229C114.013 23.4229 115.692 21.4097 115.692 17.9766C115.692 14.5043 114.013 12.4521 111.125 12.4521ZM98 6.51172H91.875V1.75H98V6.51172Z" fill="#111827"/>
<path d="M9.93457 7.875C15.5393 7.87513 19.2109 11.0715 19.2109 16.4775H14.0312C13.9926 13.9522 12.5243 12.4523 10.1279 12.4521C7.38345 12.4521 5.87598 14.386 5.87598 17.9375C5.87598 21.3706 7.42186 23.4229 10.0117 23.4229C12.5241 23.4228 14.0316 21.9625 14.0703 19.4766H19.25C19.25 25.0799 15.3457 28 9.70215 28C3.98135 27.9999 0 24.2902 0 17.9766C0.000170397 11.6236 4.05919 7.875 9.93457 7.875ZM31.3818 22.584H31.4619L36.6494 8.75H42.875L34.7344 28H27.5107L19.25 8.75H26.3135L31.3818 22.584Z" fill="#FF6B35"/>
</svg>
