<svg width="104" height="32" viewBox="0 0 104 32" fill="none" xmlns="http://www.w3.org/2000/svg">
<path d="M94.2256 0C99.1961 0 103.226 4.02944 103.226 9V23C103.226 27.9706 99.1961 32 94.2256 32H43.0645C38.0939 32 34.0645 27.9705 34.0645 23V9C34.0645 4.02946 38.0939 3.50484e-05 43.0645 0H94.2256ZM7.16797 11.2979C11.1564 11.298 13.7578 13.6103 13.7578 17.3965H10.8379C10.809 15.2576 9.42165 13.957 7.25391 13.957C4.76845 13.9572 3.23633 15.72 3.23633 18.668C3.23655 21.5868 4.73988 23.3789 7.13867 23.3789C9.42185 23.3789 10.8381 22.1067 10.8672 19.9971H13.7861C13.7859 23.812 11.0693 26.0381 6.99414 26.0381C2.80337 26.0381 0.000258591 23.2343 0 18.668C0 14.1013 2.86139 11.2979 7.16797 11.2979ZM57.9932 11.2969C53.4559 11.2972 50.5363 14.13 50.5361 18.6963C50.5363 23.2336 53.4559 26.0368 57.9932 26.0371C62.5597 26.0371 65.4793 23.2338 65.4795 18.6963C65.4793 14.1298 62.5598 11.2969 57.9932 11.2969ZM88.7031 11.2969C84.1657 11.2971 81.2462 14.1299 81.2461 18.6963C81.2463 23.2337 84.1657 26.0369 88.7031 26.0371C93.2697 26.0371 96.1893 23.2338 96.1895 18.6963C96.1893 14.1298 93.2697 11.2969 88.7031 11.2969ZM23.0713 22.7725H23.1289L27.666 11.5283H31.0479L24.8633 25.8066H21.0186L14.8047 11.5283H18.5908L23.0713 22.7725ZM46.7109 5.19824C43.6188 5.19845 41.5091 6.9326 41.5088 10.1113V11.5283H39.2256V14.1582H41.5088V25.8057H44.7461V14.1582H49.7168V11.5283H44.7461V10.2559C44.7464 8.69567 45.6421 7.8283 47.2891 7.82812C48.2716 7.82812 49.0239 8.0303 49.4863 8.1748V5.60254C49.0237 5.42913 47.9824 5.19824 46.7109 5.19824ZM68.3311 25.8057H71.5684V5.77637H68.3311V25.8057ZM75.0498 25.8057H78.2861V11.5283H75.0498V25.8057ZM57.9932 13.9561C60.6233 13.9561 62.2421 15.7773 62.2422 18.6963C62.242 21.5864 60.6232 23.3779 57.9932 23.3779C55.3635 23.3776 53.7736 21.5861 53.7734 18.6963C53.7736 15.7775 55.3635 13.9564 57.9932 13.9561ZM88.7031 13.9561C91.3332 13.9561 92.952 15.7773 92.9521 18.6963C92.952 21.5864 91.3332 23.3779 88.7031 23.3779C86.0733 23.3777 84.4836 21.5862 84.4834 18.6963C84.4835 15.7774 86.0733 13.9563 88.7031 13.9561ZM75.0205 9.85156H78.3447V6.67188H75.0205V9.85156Z" fill="#111827"/>
</svg>
