<svg width="153" height="44" viewBox="0 0 153 44" fill="none" xmlns="http://www.w3.org/2000/svg">
<rect x="52" width="101" height="44" rx="8" fill="#FF6B35"/>
<path d="M69.9268 5C72.1513 5.00001 74.0645 5.49263 74.6436 5.7168V10.7363C74.0649 10.557 72.8636 10.1993 71.3066 10.1992C69.0815 10.1992 68.0127 11.2302 68.0127 13.2021V14.8604H75V20.1484H68.0127V37H61.249V20.1484H58V14.8604H61.249V12.709C61.249 7.59974 64.9425 5 69.9268 5ZM87.5 14C94.4683 14 98.9999 18.2842 99 25.5449C99 32.7606 94.4684 37 87.5 37C80.5316 37 76 32.7606 76 25.5449C76.0001 18.2842 80.5317 14 87.5 14ZM109 37H103V6H109V37ZM120 37H113V14.7812H120V37ZM135 14C142.271 14 147 18.2842 147 25.5449C147 32.7606 142.271 37 135 37C127.729 37 123 32.7606 123 25.5449C123 18.2842 127.729 14 135 14ZM87.5 19.2314C84.3365 19.2314 82.4981 21.5764 82.498 25.5449C82.498 29.4685 84.3364 31.7686 87.5 31.7686C90.6636 31.7686 92.502 29.4685 92.502 25.5449C92.5019 21.5764 90.6635 19.2314 87.5 19.2314ZM135 19.2314C131.699 19.2314 129.78 21.5764 129.78 25.5449C129.78 29.4685 131.699 31.7686 135 31.7686C138.301 31.7686 140.22 29.4685 140.22 25.5449C140.22 21.5764 138.301 19.2314 135 19.2314ZM120 12.4424H113V7H120V12.4424Z" fill="#111827"/>
<path d="M11.3535 14C17.7588 14.0002 21.9549 17.653 21.9551 23.8311H16.0361C15.9918 20.9451 14.3129 19.2316 11.5742 19.2314C8.43767 19.2314 6.71484 21.4412 6.71484 25.5C6.71484 29.4235 8.48158 31.7685 11.4414 31.7686C14.3129 31.7686 16.0359 30.1 16.0801 27.2588H22C22 33.6627 17.5377 37 11.0879 37C4.54981 36.9999 0 32.7606 0 25.5449C7.57762e-05 18.2842 4.63871 14 11.3535 14ZM35.8643 30.8096H35.9561L41.8848 15H49L39.6953 37H31.4404L22 15H30.0723L35.8643 30.8096Z" fill="#111827"/>
</svg>
